<svg xmlns="http://www.w3.org/2000/svg" width="32" height="40" fill="none"><path fill="#20DF9E" d="M15.5 40h-.023a1 1 0 0 1-.122-.012c-2.241-.28-13.64-5.562-15.15-19.849A17 17 0 0 1 0 17.532l.027-1.079c-.085-5.707.045-8.775.165-10.33.07-.894.674-1.604 1.512-1.887l11.34-3.84A7.5 7.5 0 0 1 15.5 0a7.5 7.5 0 0 1 2.456.396l11.34 3.84c.838.283 1.442.993 1.512 1.887.12 1.555.25 4.623.165 10.33L31 17.532c0 .88-.072 1.75-.205 2.607-1.51 14.287-12.909 19.57-15.15 19.85a.7.7 0 0 1-.145.01Z"/><path fill="#20A690" fill-rule="evenodd" d="M15.5 38.113c.318-.068 1.164-.34 2.369-.989a20.7 20.7 0 0 0 4.352-3.175c3.043-2.88 6.023-7.375 6.724-14.008l.012-.092q.18-1.14.183-2.294l-.027-1.054v-.076c.084-5.675-.045-8.68-.16-10.156a.22.22 0 0 0-.05-.128.43.43 0 0 0-.2-.128l-11.34-3.84a5.7 5.7 0 0 0-1.85-.298h-.026a5.7 5.7 0 0 0-1.85.299L2.296 6.013a.43.43 0 0 0-.2.128.2.2 0 0 0-.05.128c-.115 1.477-.244 4.482-.16 10.156v.076l-.027 1.054q.003 1.154.183 2.294l.012.092c.7 6.633 3.68 11.127 6.724 14.009a20.7 20.7 0 0 0 4.352 3.174c1.205.649 2.051.921 2.369.989ZM0 17.532l.027-1.079c-.085-5.707.045-8.775.165-10.33.07-.894.674-1.604 1.512-1.887l11.34-3.84A7.5 7.5 0 0 1 15.5 0a7.5 7.5 0 0 1 2.456.396l11.34 3.84c.838.283 1.442.993 1.512 1.887.12 1.555.25 4.623.165 10.33L31 17.532c0 .88-.072 1.75-.205 2.607-1.51 14.287-12.909 19.57-15.15 19.85a.7.7 0 0 1-.168.011 1 1 0 0 1-.122-.012c-2.241-.28-13.64-5.562-15.15-19.849A17 17 0 0 1 0 17.532" clip-rule="evenodd"/><path fill="#000" d="M15.502 40c0-7.5-.118-31.867 0-40a7.5 7.5 0 0 1 2.455.396l11.34 3.84c.838.283 1.443.993 1.512 1.887.12 1.555.25 4.623.165 10.33l.028 1.079c0 .88-.072 1.75-.206 2.607-1.51 14.287-12.908 19.57-15.15 19.85a1 1 0 0 1-.144.01Z" opacity=".1"/><ellipse cx="15.5" cy="20.625" fill="#18AA79" rx="11.16" ry="11.25"/><ellipse cx="15.5" cy="18.75" fill="#4FFFA8" rx="11.16" ry="11.25"/><path fill="#00B7FF" d="M6.2 18.748a9.4 9.4 0 0 1 .326-2.457c.358.771.877 1.438 1.23 2.23.457 1.017 1.684.735 2.225 1.627.481.792-.032 1.793.328 2.621.26.602.877.733 1.302 1.172.434.444.425 1.051.491 1.63a15 15 0 0 0 .367 2.03c-3.647-1.283-6.27-4.767-6.27-8.853Zm9.358 9.377a9.4 9.4 0 0 1-1.56-.13c.006-.133.008-.257.022-.343.118-.776.506-1.536 1.03-2.117.517-.573 1.226-.961 1.662-1.612.428-.635.556-1.49.38-2.231-.26-1.096-1.746-1.462-2.547-2.056-.461-.342-.871-.87-1.476-.914-.279-.02-.512.04-.789-.03-.253-.066-.452-.203-.722-.167-.505.066-.823.606-1.365.533-.514-.069-1.044-.672-1.161-1.163-.15-.63.348-.836.882-.892.222-.023.473-.049.687.034.281.104.414.38.667.52.475.26.57-.156.498-.578-.109-.632-.235-.889.327-1.324.39-.3.723-.517.661-1.056-.037-.316-.21-.46-.049-.774.123-.24.459-.456.677-.6.565-.369 2.42-.341 1.663-1.375-.223-.303-.634-.845-1.024-.92-.487-.092-.704.453-1.044.694-.35.248-1.034.53-1.386.146-.472-.517.314-.687.488-1.048.08-.168 0-.402-.136-.623q.264-.111.537-.206a.76.76 0 0 0 .39.146c.326.022.633-.155.918.068.316.244.543.553.963.629.405.073.835-.164.935-.58.061-.253 0-.52-.058-.781a9.3 9.3 0 0 1 5.118 1.573c-.098-.037-.214-.033-.358.034-.296.138-.715.489-.75.836-.039.395.542.45.818.45.414 0 .834-.185.7-.665-.057-.207-.136-.424-.264-.555q.46.32.878.69l-.014.014c-.28.293-.606.525-.798.882-.136.25-.288.37-.563.435-.151.035-.324.049-.45.15-.353.279-.152.948.182 1.148.423.254 1.05.135 1.368-.227.25-.284.396-.775.844-.775a.75.75 0 0 1 .527.216c.186.192.15.372.189.612.07.427.445.195.674-.02q.25.446.45.917c-.251.363-.451.758-1.056.335-.362-.253-.585-.621-1.04-.735-.397-.098-.804.004-1.197.072-.446.077-.974.111-1.313.45-.327.326-.5.763-.848 1.09-.673.635-.957 1.328-.522 2.226.42.863 1.297 1.331 2.243 1.27.93-.062 1.895-.602 1.868.751-.01.48.09.81.237 1.256.136.41.127.808.158 1.23q.045.747.231 1.47a9.35 9.35 0 0 1-7.382 3.62"/><path fill="#000" d="M11.779 26.25c6.163 0 11.16-5.037 11.16-11.25 0-2.146-.596-4.15-1.63-5.857a11.26 11.26 0 0 1 5.35 9.607c0 6.213-4.997 11.25-11.16 11.25-4.035 0-7.57-2.159-9.53-5.393a11.04 11.04 0 0 0 5.81 1.643" opacity=".1"/><path fill="#342B53" fill-rule="evenodd" d="M15.5 27.813c4.965 0 8.99-4.058 8.99-9.063s-4.025-9.063-8.99-9.063-8.99 4.058-8.99 9.063 4.025 9.063 8.99 9.063m0 2.187c6.163 0 11.16-5.037 11.16-11.25S21.663 7.5 15.5 7.5 4.34 12.537 4.34 18.75 9.336 30 15.5 30" clip-rule="evenodd"/><g filter="url(#a)"><ellipse cx="25.111" cy="13.438" fill="#FF5E5C" rx="4.65" ry="4.688"/><path fill="#fff" fill-rule="evenodd" d="M26.51 12.732h.35c.137 0 .246.111.246.248v2.397c0 .137-.11.248-.245.248h-3.502a.246.246 0 0 1-.246-.248V12.98c0-.137.11-.248.246-.248h.35v-.695c0-.78.627-1.412 1.4-1.412.774 0 1.401.632 1.401 1.412zm-2.1 0h1.4v-.695a.703.703 0 0 0-.7-.706c-.387 0-.7.316-.7.706zm.697 1.925c.3 0 .542-.245.542-.547a.545.545 0 0 0-.542-.546c-.3 0-.543.244-.543.546s.243.547.543.547" clip-rule="evenodd"/></g><defs><filter id="a" width="13.301" height="13.375" x="18.461" y="6.75" color-interpolation-filters="sRGB" filterUnits="userSpaceOnUse"><feFlood flood-opacity="0" result="BackgroundImageFix"/><feColorMatrix in="SourceAlpha" result="hardAlpha" values="0 0 0 0 0 0 0 0 0 0 0 0 0 0 0 0 0 0 127 0"/><feOffset/><feGaussianBlur stdDeviation="1"/><feComposite in2="hardAlpha" operator="out"/><feColorMatrix values="0 0 0 0 0 0 0 0 0 0 0 0 0 0 0 0 0 0 0.2 0"/><feBlend in2="BackgroundImageFix" result="effect1_dropShadow_10393_555"/><feBlend in="SourceGraphic" in2="effect1_dropShadow_10393_555" result="shape"/></filter></defs></svg>