<svg xmlns="http://www.w3.org/2000/svg" width="16" height="16" fill="none" viewBox="0 0 16 16"><path fill="url(#a)" d="M6.687 2.44a1.5 1.5 0 0 1 2.624 0l5.164 9.333A1.5 1.5 0 0 1 13.163 14H2.836a1.5 1.5 0 0 1-1.313-2.227z"/><path fill="url(#b)" d="M8.665 11.333a.666.666 0 1 0-1.332-.042.666.666 0 0 0 1.332.042M8.492 6.1a.5.5 0 0 0-.995.068l.002 3.001.005.068a.5.5 0 0 0 .995-.069l-.002-3z"/><defs><linearGradient id="a" x1="3.41671" x2="11.146" y1="-0.261989" y2="15.6513" gradientUnits="userSpaceOnUse"><stop stop-color="#FFCD0F"/><stop offset="1" stop-color="#FE8401"/></linearGradient><linearGradient id="b" x1="6.22401" x2="9.16801" y1="5.66672" y2="12.2701" gradientUnits="userSpaceOnUse"><stop stop-color="#4A4A4A"/><stop offset="1" stop-color="#212121"/></linearGradient></defs></svg>