<svg xmlns="http://www.w3.org/2000/svg" width="24" height="24" fill="none" viewBox="0 0 24 24"><path fill="#F6B94F" d="M21.174 9.401a.6.6 0 0 1-.016.174l-1.295 5.133a.59.59 0 0 1-.568.442l-7.772.039H3.748a.59.59 0 0 1-.572-.443L1.881 9.595a.6.6 0 0 1-.015-.178A1.23 1.23 0 0 1 1 8.247c0-.675.555-1.225 1.236-1.225.682 0 1.237.55 1.237 1.225 0 .38-.176.721-.451.946l1.621 1.619a2.217 2.217 0 0 0 3.318-.223l2.665-3.498a1.22 1.22 0 0 1-.362-.866C10.264 5.55 10.818 5 11.5 5s1.236.55 1.236 1.225c0 .328-.13.625-.343.845l.002.003 2.646 3.508a2.215 2.215 0 0 0 3.316.237L19.99 9.2a1.22 1.22 0 0 1-.462-.954c0-.675.555-1.225 1.237-1.225.681 0 1.236.55 1.236 1.225 0 .533-.346.986-.826 1.154m-1.437 7.616a.586.586 0 0 0-.59-.584H3.918a.586.586 0 0 0-.588.584v1.4c0 .322.264.583.589.583h15.23a.586.586 0 0 0 .588-.583z"/></svg>