<svg xmlns="http://www.w3.org/2000/svg" width="22" height="22" fill="none" viewBox="0 0 22 22"><path fill="url(#a)" d="M11.183 8.25 9.35 6.417h2.567c1.008 0 1.833.825 1.833 1.833v2.567l-1.833-1.834V8.25zm9.9 0V6.417h-3.666a1.84 1.84 0 0 0-1.834 1.833v1.833c0 1.009.825 1.834 1.834 1.834h1.833v1.833h-2.567l1.834 1.833h.733a1.84 1.84 0 0 0 1.833-1.833v-1.833a1.84 1.84 0 0 0-1.833-1.834h-1.833V8.25zm-.825 11.458L19.067 20.9 13.2 15.033c-.275.275-.733.55-1.283.55H8.25V9.992L6.417 8.158v7.425H4.583v-3.666H2.75v3.666H.917V8.25c0-1.008.825-1.833 1.833-1.833h1.925L1.008 2.75 2.2 1.558zM4.583 8.25H2.75v1.833h1.833zm7.334 5.408-1.834-1.833v1.925h1.834z"/><defs><linearGradient id="a" x1="11.0001" x2="11.0001" y1="1.55835" y2="20.9" gradientUnits="userSpaceOnUse"><stop stop-color="#F6B94F"/><stop offset="1" stop-color="#E89506"/></linearGradient></defs></svg>