<svg xmlns="http://www.w3.org/2000/svg" width="16" height="16" fill="none" viewBox="0 0 16 16"><path fill="url(#a)" d="M4.445 5.091c-.071.76-.121 2.105.328 2.678 0 0-.212-1.478 1.682-3.332.763-.746.939-1.76.673-2.522-.152-.431-.428-.788-.668-1.036A.223.223 0 0 1 6.631.5c1.233.055 3.23.397 4.079 2.527.372.935.4 1.902.222 2.884-.112.628-.512 2.023.4 2.194.652.122.967-.395 1.108-.768a.222.222 0 0 1 .373-.07c1.1 1.252 1.193 2.725.966 3.994-.44 2.453-2.924 4.238-5.391 4.238-3.083 0-5.537-1.764-6.173-4.956-.256-1.29-.126-3.84 1.861-5.64a.223.223 0 0 1 .37.188"/><path fill="url(#b)" d="M9.514 9.678c-1.136-1.463-.628-3.132-.349-3.797.038-.087-.062-.17-.141-.116-.489.333-1.49 1.115-1.956 2.216-.632 1.489-.587 2.218-.213 3.108.225.536-.036.65-.167.67-.128.02-.245-.065-.34-.154a2 2 0 0 1-.554-.95c-.02-.077-.121-.099-.168-.035-.35.484-.53 1.26-.54 1.809C5.06 14.125 6.46 15.5 8.156 15.5c2.135 0 3.692-2.363 2.464-4.337-.356-.575-.691-.952-1.106-1.485"/><defs><radialGradient id="a" cx="0" cy="0" r="1" gradientTransform="matrix(-8.82338 -.03835 .06292 -14.47736 7.777 15.538)" gradientUnits="userSpaceOnUse"><stop offset="0.314" stop-color="#FF9800"/><stop offset="0.662" stop-color="#FF6D00"/><stop offset="0.972" stop-color="#F44336"/></radialGradient><radialGradient id="b" cx="0" cy="0" r="1" gradientTransform="matrix(-.09324 9.23158 -6.94746 -.07017 8.273 6.757)" gradientUnits="userSpaceOnUse"><stop offset="0.214" stop-color="#FFF176"/><stop offset="0.328" stop-color="#FFF27D"/><stop offset="0.487" stop-color="#FFF48F"/><stop offset="0.672" stop-color="#FFF7AD"/><stop offset="0.793" stop-color="#FFF9C4"/><stop offset="0.822" stop-color="#FFF8BD" stop-opacity="0.804"/><stop offset="0.863" stop-color="#FFF6AB" stop-opacity="0.529"/><stop offset="0.91" stop-color="#FFF38D" stop-opacity="0.209"/><stop offset="0.941" stop-color="#FFF176" stop-opacity="0"/></radialGradient></defs></svg>