<svg xmlns="http://www.w3.org/2000/svg" width="34" height="49" fill="none"><path fill="#DE4558" d="M19.914 31.19C19.104 31.752 16 30 18 24c-5 3.5-2.122 10.15-2.88 10.831a16.7 16.7 0 0 0-2.964 3.533C9.83 42.1 10.166 44.749 13.281 49 3.82 47.718-3.412 34.67 1.681 27.687c.143 3.507 1.351 6.132 5.028 7.205-.355-1.133-.694-2.056-.93-3.005-.922-3.726-.36-7.276 1.298-10.674.5-1.021.98-2.057 1.558-3.029 1.833-3.071 2.736-6.32 1.73-10.094 3.413 2.376 3.716 5.366 1.522 13.846 4.122-2.025 5.976-5.447 6.666-9.652.677-4.134-.2-8.073-2.173-12.284 4.358 3.097 6.902 6.942 8.283 11.485.791 2.601 1.183 5.413 1.255 8.142.133 4.919-2.009 8.786-6.005 11.565zm13.789-3.458c-.524-3.905-1.985-7.463-4.186-10.724.917 7.383-1.415 13.255-7.325 17.595-.79.581-1.474 1.379-2.06 2.187-1.17 1.616-.677 5.621.868 7.71 3-2 2.918-4.5 2.918-6.224 1.433 3.848.617 7.247-1.96 10.556 3.617-.814 6.287-2.66 8.367-5.366 3.585-4.664 4.138-10.083 3.378-15.736z"/></svg>