<svg xmlns="http://www.w3.org/2000/svg" width="88" height="80" fill="none" viewBox="0 0 88 80"><path fill="#fff" d="m67.016 35.364.241-1.304a7.35 7.35 0 0 1 1.147-2.814 6.6 6.6 0 0 1 2.246-2.076q1.376-.785 3.175-.785 1.86 0 3.007.785a3.95 3.95 0 0 1 1.581 2.064q.447 1.28.145 2.826l-.241 1.304a7.5 7.5 0 0 1-1.147 2.813 6.5 6.5 0 0 1-2.246 2.077q-1.388.784-3.212.784-1.823 0-2.97-.784a4.1 4.1 0 0 1-1.582-2.077q-.435-1.305-.144-2.813m4.093-1.304-.242 1.304a2.75 2.75 0 0 0 .12 1.485q.279.712 1.293.712 1.063 0 1.533-.7.471-.7.616-1.497l.242-1.304a3.1 3.1 0 0 0-.085-1.522q-.23-.724-1.328-.724-1.014 0-1.51.724-.495.712-.64 1.522m-14.55-12.847.194-1.304a6.64 6.64 0 0 1 3.393-4.89q1.4-.785 3.187-.785 1.848 0 2.97.785a4 4 0 0 1 1.558 2.053q.435 1.28.205 2.837l-.193 1.304a6.7 6.7 0 0 1-1.099 2.825 6.35 6.35 0 0 1-2.282 2.04q-1.4.762-3.224.762-1.835 0-2.958-.761a4 4 0 0 1-1.545-2.053q-.423-1.292-.205-2.813m4.082-1.304-.194 1.304q-.12.809.133 1.51.255.687 1.256.688 1.05 0 1.533-.689.483-.7.604-1.509l.193-1.304q.12-.81-.096-1.521-.218-.725-1.304-.725-1.027 0-1.522.737a3.8 3.8 0 0 0-.603 1.51M55.195 40 76.3 15.273h3.478L58.673 40zm-16.265.604q-3.248 0-5.348-1.534-2.1-1.545-2.886-4.43-.784-2.899-.085-6.968.69-4.068 2.427-6.906 1.74-2.85 4.323-4.334 2.583-1.497 5.807-1.497 3.236 0 5.325 1.497 2.1 1.485 2.898 4.334.796 2.838.12 6.907-.676 4.068-2.427 6.966-1.739 2.898-4.334 4.431-2.584 1.534-5.82 1.534m.821-4.89q1.932 0 3.43-1.98 1.497-1.98 2.185-6.062.459-2.667.205-4.419-.242-1.75-1.075-2.608-.82-.857-2.1-.857-1.932 0-3.454 1.944-1.52 1.932-2.197 5.94-.447 2.73-.193 4.516.253 1.775 1.087 2.656.833.87 2.112.87m-23.21 4.624q-2.088 0-3.876-.688a7.33 7.33 0 0 1-3.03-2.173q-1.232-1.499-1.69-3.9-.447-2.403.132-5.82.508-3.018 1.618-5.385 1.11-2.379 2.717-4.033 1.606-1.666 3.622-2.535t4.335-.87q2.62 0 4.479.99 1.86.99 2.813 2.681.966 1.69.857 3.78h-5.795q-.012-1.197-.773-1.776-.76-.58-1.944-.58-2.33 0-3.875 2.03-1.545 2.027-2.162 5.372l.194-.302a6.7 6.7 0 0 1 1.75-1.871 8 8 0 0 1 2.306-1.16 8.7 8.7 0 0 1 2.608-.398q2.283 0 3.864 1.075 1.581 1.062 2.258 2.922.687 1.86.29 4.213-.411 2.524-1.908 4.42-1.485 1.895-3.755 2.958-2.27 1.05-5.035 1.05m.217-4.588q1.172 0 2.186-.556a5 5 0 0 0 1.714-1.52 4.8 4.8 0 0 0 .87-2.186q.168-1.05-.157-1.86a2.6 2.6 0 0 0-1.039-1.291q-.712-.471-1.762-.471-.87 0-1.667.326a5.2 5.2 0 0 0-1.46.905 5.2 5.2 0 0 0-1.087 1.352 5 5 0 0 0-.58 1.667q-.156 1.074.17 1.895.325.81 1.05 1.28.724.459 1.762.459M42.008 68l3.139-18.91h12.908l-.628 3.712H49.09l-.628 3.878h7.515l-.628 3.721h-7.515L46.578 68zM27.3 68l3.14-18.91h12.908l-.628 3.712h-8.337l-.628 3.878h7.515l-.628 3.721h-7.515L31.87 68zm-.646-9.159q-.517 3.056-2.031 5.161-1.505 2.097-3.666 3.176a10.16 10.16 0 0 1-4.625 1.08q-2.613 0-4.524-1.163t-2.78-3.388q-.858-2.226-.332-5.401.498-3.057 2.004-5.17 1.514-2.115 3.684-3.205a10.2 10.2 0 0 1 4.671-1.098q2.595 0 4.497 1.172 1.91 1.172 2.77 3.407.858 2.235.332 5.429m-4.57-.535q.285-1.783 0-3.001-.277-1.22-1.09-1.837-.812-.629-2.114-.628-1.44 0-2.604.71-1.154.703-1.93 2.05-.774 1.34-1.08 3.241-.313 1.8-.018 3 .305 1.2 1.136 1.81.83.6 2.114.6 1.431 0 2.576-.692 1.145-.693 1.911-2.022.775-1.329 1.099-3.231"/></svg>