<svg xmlns="http://www.w3.org/2000/svg" width="390" height="390" fill="none" viewBox="0 0 390 390"><path stroke="#DE4558" stroke-linecap="round" stroke-width="2" d="M195 4v40m0 302v40M4 195h40m302 0h40M59.943 59.942l28.285 28.285m213.545 213.546 28.285 28.285m-270.115 0 28.285-28.285M301.773 88.227l28.285-28.285M121.908 18.54l15.307 36.954m115.57 279.012 15.307 36.955M18.539 268.093l36.955-15.308m279.012-115.57 36.955-15.307m-352.922-.001 36.955 15.308m279.012 115.57 36.955 15.307M121.908 371.461l15.307-36.955m115.57-279.012 15.307-36.955M157.738 7.67l7.804 39.231m58.917 296.198 7.804 39.231M7.67 232.262l39.231-7.803m296.197-58.917 39.231-7.804M36.189 88.886l33.26 22.223m251.104 167.782 33.258 22.223M88.887 353.811l22.222-33.259M278.891 69.448l22.222-33.258m-212.226 0 22.222 33.258m167.782 251.104 22.222 33.259M36.189 301.114l33.26-22.223m251.104-167.782 33.258-22.223M7.67 157.738l39.231 7.803m296.197 58.917 39.231 7.804M157.738 382.33l7.804-39.231m58.917-296.198 7.804-39.231m-55.984-2.75 3.921 39.807m29.601 300.546 3.92 39.807M4.92 213.722l39.807-3.921m300.546-29.602 39.808-3.92M47.355 73.831l30.92 25.376m233.45 191.586 30.92 25.376M73.832 342.645l25.376-30.92m191.585-233.45 25.376-30.92M104.963 26.553l18.856 35.277m142.363 266.34 18.855 35.277m-258.484-78.41 35.276-18.856M328.17 123.819l35.277-18.856M12.225 139.556l38.277 11.611m288.996 87.666 38.278 11.612m-238.219 127.33 11.611-38.277m87.666-288.996 11.611-38.278m-110.888.001 11.611 38.277m87.666 288.996 11.611 38.278M12.225 250.445l38.277-11.612m288.996-87.666 38.278-11.611M26.553 104.963l35.276 18.856M328.17 266.181l35.277 18.856m-258.484 78.41 18.856-35.277M266.182 61.83l18.855-35.277M73.832 47.355l25.376 30.92m191.585 233.45 25.376 30.92M47.355 316.169l30.92-25.376m233.45-191.586 30.92-25.376M4.92 176.279l39.807 3.92m300.546 29.602 39.808 3.92M176.279 385.08l3.921-39.807m29.601-300.546 3.92-39.807"/></svg>