<svg xmlns="http://www.w3.org/2000/svg" width="352" height="352" fill="none"><path stroke="#4E2C30" stroke-linecap="round" stroke-width="2" d="M176 1v24m0 302v24m0-350v24m0 302v24M1 176h24m302 0h24M52.258 52.256l16.97 16.97m213.545 213.547 16.971 16.971m-247.486 0 16.97-16.971M282.773 69.227l16.971-16.97M109.031 14.321l9.185 22.173m115.569 279.012 9.185 22.173M14.32 242.97l22.173-9.185m279.011-115.57 22.173-9.185m-323.357 0 22.173 9.185m279.011 115.57 22.173 9.185m-228.646 94.709 9.185-22.173M233.785 36.494l9.185-22.173M141.859 4.362l4.683 23.54m58.915 296.197 4.682 23.538M4.363 210.141l23.54-4.683m296.199-58.917 23.538-4.682M30.492 78.775 50.447 92.11m251.108 167.781 19.955 13.334M78.777 321.507l13.334-19.955m167.78-251.104 13.333-19.955m-194.451 0 13.334 19.955m167.784 251.104 13.333 19.955M30.492 273.225l19.955-13.334M301.555 92.109l19.955-13.334M4.363 141.859l23.54 4.683m296.195 58.916 23.539 4.683M141.859 347.637l4.683-23.539m58.919-296.197 4.682-23.538m-51.295-2.52 2.352 23.884m29.601 300.546 2.352 23.884M1.844 193.153l23.884-2.352m300.545-29.602 23.885-2.352M40.723 64.981l18.552 15.226m233.452 191.586 18.552 15.226M64.98 311.277l15.226-18.552m191.587-233.45 15.225-18.552M93.508 21.664 104.82 42.83m142.36 266.34 11.313 21.166M21.664 258.494l21.166-11.313m266.342-142.362 21.166-11.314M8.535 125.2l22.967 6.967m288.994 87.666 22.967 6.967M125.199 343.464l6.967-22.966m87.666-288.996 6.967-22.967m-101.596 0 6.967 22.967m87.666 288.996 6.967 22.967M8.535 226.8l22.967-6.967M320.5 132.167l22.967-6.967M21.664 93.505 42.83 104.82m266.342 142.361 21.166 11.313M93.504 330.336l11.313-21.166M247.18 42.83l11.313-21.166M64.98 40.723l15.226 18.552m191.587 233.45 15.225 18.552M40.723 287.019l18.552-15.226M292.723 80.207l18.552-15.226M1.844 158.847l23.884 2.352M326.273 190.8l23.885 2.353m-191.31 157.004 2.352-23.884m29.601-300.546 2.352-23.884"/></svg>