<svg xmlns="http://www.w3.org/2000/svg" width="22" height="23" fill="none" viewBox="0 0 22 23"><path fill="url(#a)" d="M20.295 5.986c-.023-.583-.023-1.145-.023-1.684a.757.757 0 0 0-.763-.763c-3.301-.023-5.816-.966-7.904-2.987a.773.773 0 0 0-1.078 0C8.439 2.573 5.924 3.516 2.645 3.516a.757.757 0 0 0-.763.764c0 .539 0 1.1-.023 1.706-.112 5.547-.269 13.114 8.96 16.302.09.023.157.045.247.045a.8.8 0 0 0 .247-.044c9.229-3.19 9.072-10.756 8.982-16.303m-9.23 14.753c-7.903-2.874-7.79-9.161-7.679-14.708 0-.337.023-.65.023-.965 3.076-.157 5.546-1.078 7.657-2.92 2.11 1.842 4.58 2.785 7.657 2.897 0 .315 0 .629.022.966.113 5.569.225 11.856-7.68 14.73"/><path fill="url(#b)" d="m13.715 8.658-3.705 3.706-1.594-1.595c-.292-.292-.786-.292-1.1 0-.292.292-.292.786 0 1.1l2.133 2.134a.73.73 0 0 0 .539.224.7.7 0 0 0 .539-.224l4.266-4.267c.292-.292.292-.786 0-1.1a.753.753 0 0 0-1.078.022"/><defs><linearGradient id="a" x1="11.0738" x2="11.0738" y1="0.333374" y2="22.3334" gradientUnits="userSpaceOnUse"><stop stop-color="#F6B94F"/><stop offset="1" stop-color="#E89506"/></linearGradient><linearGradient id="b" x1="11.0546" x2="11.0546" y1="8.41983" y2="14.2273" gradientUnits="userSpaceOnUse"><stop stop-color="#F6B94F"/><stop offset="1" stop-color="#E89506"/></linearGradient></defs></svg>