<svg xmlns="http://www.w3.org/2000/svg" width="22" height="22" fill="none" viewBox="0 0 22 22"><path fill="url(#a)" d="M7.398 10.95c1.558-1.326.979-2.406 1.68-2.982-1.902-.226-4.612.521-5.161 1.343-.55.821 2.561 1.008 3.092 1.867.455.736.362-.128.389-.227"/><path fill="url(#b)" d="M13.222 13.949c-.584 1.755-2.454 3.845-3.456 3.93s-.096-2.856-.576-3.49 3.182-.11 4.032-.44"/><path fill="url(#c)" d="M5.121 12.257c-.361.128-.647.377-1.008.505-.415.325-.857.75-1.093 1.221a4.6 4.6 0 0 0-.737 1.513l-.054.198c-.053.198.098.443.303.49l.205.047c.513.118 1.053.136 1.592.155.977.014 1.958-.392 2.761-.944l-1.06-1.715z"/><path fill="url(#d)" d="M9.718 15.107c-.102-.024-.28-.17-.28-.17l-2.423-3.919c-.151-.245-.098-.443.058-.617.544-.4 1.04-1.023 1.406-1.57a1.14 1.14 0 0 1 .495-.622c.285-.25.441-.424.598-.598a8.2 8.2 0 0 1 1.503-1.127c2.715-1.585 6.794-.965 8.434-.589.103.024.28.17.28.17.077.122.05.221-.004.419-.429 1.583-1.782 5.372-4.498 6.957a8.4 8.4 0 0 1-1.73.759 6 6 0 0 0-.825.231l-.695.156c-.67.057-1.391.312-2.011.59zm4.53-7.475c-1.128-.259-2.292.42-2.587 1.509s.387 2.19 1.514 2.449 2.292-.42 2.587-1.509c.192-1.112-.386-2.19-1.514-2.45"/><defs><linearGradient id="a" x1="6.80836" x2="5.95506" y1="7.44751" y2="11.1687" gradientUnits="userSpaceOnUse"><stop stop-color="#F6B94F"/><stop offset="1" stop-color="#E89506"/></linearGradient><linearGradient id="b" x1="11.3448" x2="10.311" y1="13.5182" y2="18.0262" gradientUnits="userSpaceOnUse"><stop stop-color="#F6B94F"/><stop offset="1" stop-color="#E89506"/></linearGradient><linearGradient id="c" x1="5.53134" x2="4.5466" y1="12.3512" y2="16.6461" gradientUnits="userSpaceOnUse"><stop stop-color="#F6B94F"/><stop offset="1" stop-color="#E89506"/></linearGradient><linearGradient id="d" x1="14.401" x2="11.9055" y1="4.72393" y2="15.6081" gradientUnits="userSpaceOnUse"><stop stop-color="#F6B94F"/><stop offset="1" stop-color="#E89506"/></linearGradient></defs></svg>