<svg xmlns="http://www.w3.org/2000/svg" width="22" height="22" fill="none" viewBox="0 0 22 22"><path fill="url(#a)" d="M2.063 5.225c0-.864.605-1.787 1.604-1.787h14.666c.999 0 1.605.923 1.605 1.787v3.3c0 .864-.606 1.787-1.605 1.787H3.667c-.999 0-1.604-.923-1.604-1.787zm3.437.963a.688.688 0 1 0 0 1.375h1.833a.688.688 0 1 0 0-1.375zm-3.437 7.287c0-.864.605-1.787 1.604-1.787h14.666c.999 0 1.605.923 1.605 1.787v3.3c0 .864-.606 1.788-1.605 1.788H3.667c-.999 0-1.604-.924-1.604-1.788zm3.437.963a.687.687 0 1 0 0 1.374h1.833a.687.687 0 1 0 0-1.374z"/><defs><linearGradient id="a" x1="11" x2="11" y1="3.4375" y2="18.5625" gradientUnits="userSpaceOnUse"><stop stop-color="#F6B94F"/><stop offset="1" stop-color="#E89506"/></linearGradient></defs></svg>